<?xml version="1.0" standalone="no"?>
<!DOCTYPE svg PUBLIC "-//W3C//DTD SVG 20010904//EN"
 "http://www.w3.org/TR/2001/REC-SVG-20010904/DTD/svg10.dtd">
<svg version="1.0" xmlns="http://www.w3.org/2000/svg"
 width="144.000000pt" height="144.000000pt" viewBox="0 0 144.000000 144.000000"
 preserveAspectRatio="xMidYMid meet">

<g transform="translate(0.000000,144.000000) scale(0.100000,-0.100000)"
fill="#000000" stroke="none">
<path d="M480 1350 c-91 -33 -105 -48 -106 -114 -1 -55 -3 -59 -55 -112 -52
-53 -55 -54 -110 -54 -67 0 -78 -10 -114 -98 -35 -85 -33 -102 15 -141 l40
-32 0 -83 0 -83 -41 -33 c-38 -30 -41 -36 -36 -70 6 -48 63 -170 79 -171 7 0
35 0 61 1 46 1 52 -2 105 -52 l57 -53 -3 -62 -4 -62 49 -24 c26 -14 71 -32
100 -40 l52 -16 41 45 40 44 77 0 77 0 42 -45 41 -46 74 27 c115 41 119 46
119 118 l0 61 57 52 c56 51 60 53 116 53 54 0 58 2 77 32 11 18 27 57 36 85 8
29 20 53 25 53 18 0 8 25 -17 45 -70 54 -74 63 -74 145 0 77 0 78 34 101 39
27 74 78 59 88 -6 3 -26 41 -46 84 l-36 77 -63 0 -64 0 -53 54 c-54 55 -54 55
-48 105 6 46 4 53 -21 76 -15 14 -31 25 -37 25 -5 0 -22 7 -37 14 -16 8 -47
18 -70 21 -41 6 -45 4 -78 -34 l-35 -41 -78 0 c-82 0 -84 1 -135 64 -17 21
-45 20 -112 -4z m443 -37 c-7 -3 -13 -10 -13 -18 0 -7 -7 -18 -15 -25 -12 -10
-15 -10 -15 3 0 19 41 60 49 51 3 -4 0 -9 -6 -11z m-378 -13 c10 -11 14 -20 9
-20 -5 0 -17 9 -27 20 -9 11 -13 20 -8 20 4 0 16 -9 26 -20z m178 -50 c87 0
96 2 110 23 16 22 16 22 11 -8 -8 -44 11 -85 38 -85 30 1 107 36 134 61 l22
20 0 -42 c1 -38 7 -48 69 -110 50 -51 75 -69 95 -69 15 0 30 -5 33 -10 4 -6
14 -9 22 -8 9 2 24 -11 34 -30 11 -18 26 -43 34 -55 14 -22 13 -23 -13 -25
-20 -2 -35 7 -59 35 -18 21 -33 40 -33 44 0 3 -17 15 -39 27 -41 23 -123 30
-151 12 -9 -6 -17 -5 -21 2 -20 32 -91 -83 -94 -151 -1 -25 -6 -66 -10 -91 -6
-37 -5 -43 5 -33 11 10 17 7 32 -17 10 -17 32 -39 50 -50 41 -25 12 -28 -35
-4 -19 10 -32 13 -35 6 -2 -6 -16 -7 -40 -1 -45 11 -236 13 -277 3 -17 -4 -43
-14 -60 -22 -28 -14 -29 -14 -16 2 19 23 7 32 -24 18 -43 -20 -45 -14 -9 22
50 50 43 75 -11 40 -28 -18 -28 -18 -25 54 2 53 -14 110 -34 124 -7 5 -4 8 6
8 21 0 64 -56 97 -128 14 -29 28 -52 33 -52 14 0 9 49 -8 82 -12 22 -13 33 -4
38 16 10 -22 105 -57 142 -28 30 -49 37 -40 14 5 -11 0 -11 -25 1 -37 19 -112
11 -148 -15 -14 -11 -39 -36 -55 -58 -26 -34 -41 -42 -66 -36 -3 1 0 23 6 50
9 34 17 47 31 48 47 2 86 19 112 48 15 17 44 44 63 59 35 26 36 29 28 70 -13
68 -11 71 24 41 39 -33 104 -63 135 -64 28 0 46 41 38 85 l-6 30 19 -22 c17
-21 28 -23 114 -23z m-338 -250 c3 -6 -4 -10 -17 -10 -13 0 -34 -3 -48 -7 -22
-6 -24 -5 -11 10 15 19 66 23 76 7z m766 -10 c10 -6 19 -16 19 -22 0 -7 -4 -7
-12 0 -7 6 -29 15 -48 20 -33 10 -34 10 -7 11 16 1 37 -4 48 -9z m-806 -67
c-12 -30 -18 -110 -11 -149 5 -22 20 -48 39 -66 l32 -30 -43 5 c-55 7 -77 27
-97 88 -18 52 -35 65 -35 25 0 -13 -7 -29 -15 -36 -21 -17 -19 -28 5 -32 25
-4 27 -23 2 -23 -9 -1 -22 -4 -29 -8 -18 -12 -24 8 -18 60 7 48 6 48 -40 87
-43 36 -46 40 -31 55 12 11 19 13 24 5 9 -14 86 -54 105 -54 7 0 33 20 57 45
46 47 67 58 55 28z m735 7 c11 -6 25 -29 31 -53 10 -35 13 -39 19 -22 4 11 3
31 -2 44 -14 39 0 37 45 -7 48 -48 70 -51 128 -21 23 11 43 18 46 16 2 -3 -16
-22 -41 -43 -36 -30 -46 -45 -46 -68 0 -31 -15 -26 -22 7 -5 30 -21 21 -38
-22 -24 -62 -48 -81 -111 -87 -52 -5 -53 -5 -24 9 35 16 50 33 60 66 7 23 6
23 -29 17 l-36 -7 0 65 c0 74 -6 96 -27 96 -8 0 -11 5 -8 10 8 13 31 13 55 0z
m-666 -58 c8 -13 -5 -82 -15 -82 -5 0 -9 9 -9 20 0 11 -4 20 -9 20 -12 0 -23
29 -15 41 7 11 41 12 48 1z m590 -8 c18 -7 22 -34 6 -34 -6 0 -8 -12 -5 -27 6
-26 5 -26 -6 -8 -7 11 -19 25 -28 31 -13 10 -13 14 -2 28 15 18 14 18 35 10z
m240 -140 c9 -3 16 -13 16 -21 0 -20 -34 -12 -38 10 -4 19 -1 20 22 11z m-950
-70 c6 -10 16 -22 21 -26 17 -13 99 -9 120 6 11 7 34 16 50 20 26 5 27 5 10
-5 -51 -30 -96 -73 -91 -86 3 -8 -4 -27 -16 -43 -33 -45 -14 -48 44 -8 112 76
157 88 326 88 144 0 193 -13 242 -66 13 -13 30 -24 37 -24 8 0 16 -7 19 -15 7
-18 34 -20 34 -2 0 6 -9 23 -20 37 -11 14 -20 32 -20 41 0 8 -9 25 -20 37 -28
30 -25 35 11 17 21 -11 44 -15 72 -11 43 6 52 11 52 28 0 15 32 34 41 25 4 -4
2 -19 -5 -33 -6 -15 -9 -35 -6 -45 8 -23 47 -25 65 -4 18 21 22 19 48 -20 27
-43 28 -69 2 -120 -11 -22 -20 -45 -20 -52 0 -10 -15 -11 -61 -6 l-60 6 -42
-48 c-40 -45 -44 -47 -65 -34 -19 12 -24 11 -55 -19 -42 -41 -52 -41 -31 0 22
43 15 159 -13 196 -36 49 -65 56 -223 57 -135 0 -148 -2 -195 -25 -65 -33 -79
-61 -83 -178 l-4 -94 -28 27 c-15 15 -40 28 -56 30 -18 2 -40 17 -64 45 l-37
43 -55 -6 c-78 -10 -87 3 -65 88 9 35 17 78 17 97 0 48 15 67 29 39 8 -14 21
-21 43 -21 l31 0 -7 46 c-6 48 7 57 28 18z m-161 -132 c-7 -60 -19 -67 -29
-17 -5 27 -2 41 11 55 10 11 20 19 21 17 2 -2 1 -27 -3 -55z m921 -304 c7 -74
1 -81 -98 -117 l-61 -22 -40 43 -40 42 -89 1 -90 0 -40 -43 -41 -43 -72 26
c-40 15 -77 33 -83 40 -7 8 -8 32 -4 63 l6 51 28 -21 c16 -11 33 -17 39 -14 6
4 11 1 11 -6 0 -23 59 -108 74 -108 10 0 23 24 37 70 20 66 23 70 56 76 50 9
142 -2 162 -21 10 -8 24 -33 31 -55 7 -22 21 -47 31 -56 18 -16 20 -15 39 27
11 24 20 52 20 63 0 13 5 17 18 14 11 -3 33 6 53 23 19 16 37 29 40 29 3 0 9
-28 13 -62z m-485 18 c14 -16 -2 -96 -19 -96 -17 0 -55 92 -42 104 11 11 50 6
61 -8z m337 -28 c-11 -71 -40 -78 -52 -13 -8 42 0 55 33 55 24 0 25 -2 19 -42z"/>
<path d="M282 588 c-18 -18 -14 -38 7 -38 27 0 37 19 19 36 -11 11 -16 12 -26
2z"/>
<path d="M1144 586 c-9 -24 3 -47 21 -40 18 7 16 45 -2 52 -7 2 -16 -3 -19
-12z"/>
</g>
</svg>
